<?xml version="1.0" standalone="no"?>
<!DOCTYPE svg PUBLIC "-//W3C//DTD SVG 1.1//EN" "http://www.w3.org/Graphics/SVG/1.1/DTD/svg11.dtd" >
<svg xmlns="http://www.w3.org/2000/svg">
<metadata>Generated by IcoMoon</metadata>
<defs>
<font id="jfoa" horiz-adv-x="1024">
<font-face units-per-em="1024" ascent="960" descent="-64" />
<missing-glyph horiz-adv-x="1024" />
<glyph unicode="&#x20;" horiz-adv-x="512" d="" />
<glyph unicode="&#xe900;" glyph-name="account" d="M511.998 895.905c-247.386 0-447.932-200.547-447.932-447.933s200.547-447.933 447.932-447.933c247.387 0 447.933 200.547 447.933 447.933s-200.546 447.933-447.933 447.933zM511.998 35.874c-227.597 0-412.097 184.501-412.097 412.099s184.501 412.098 412.097 412.098c227.599 0 412.1-184.501 412.1-412.098 0-227.599-184.501-412.099-412.1-412.099zM405.624 273.943v-60.811c0-23.552-18.897-45.713-42.072-49.475l-111.354-33.717c54.071-46.543 147.819-94.067 259.801-94.067s197.092 40.315 268.76 98.546l-120.188 28.354c-23.131 4.262-41.873 26.745-41.873 50.359v60.811c24.445 28.155 31.725 71.39 40.235 118.789 13.421-3.132 17.384 14.699 24.733 49.229 7.331 34.526 30.304 69.91 9.535 74.325-2.765 0.586-5.362 0.617-7.822 0.144l7.909 116.029c3.306 48.442-17.637 102.010-48.189 114.95-50.602 21.446-66.236 32.815-97.704 38.945-31.483 6.128-62.36-2.467-95.082-12.98-32.72-10.515-62.383-37.868-86.839-52.622-24.453-14.759-37.187-48.153-34.449-88.293l7.905-115.963c-2.345 0.403-4.825 0.35-7.45-0.21-20.765-4.414 2.201-39.798 9.541-74.325 7.34-34.53 11.308-52.362 22.816-49.911 10.311-46.806 17.367-89.972 41.785-118.108z" />
<glyph unicode="&#xe901;" glyph-name="alarm" d="M916.736 199.072l-52.736 44.896v236.032c0 161.44-108.672 297.504-256.864 339.008 0.55 3.86 0.864 8.319 0.864 12.851 0 53.019-42.981 96-96 96s-96-42.981-96-96c0-4.532 0.314-8.99 0.921-13.355l-0.057 0.504c-148.192-41.504-256.864-177.568-256.864-339.008v-237.856l-52.224-42.656c-7.211-5.907-11.776-14.813-11.776-24.784 0-0.006 0-0.011 0-0.017v0.001-63.584c0-17.673 14.327-32 32-32v0h188.096c2.56-4.48 5.088-8.96 7.968-13.248 40.691-60.52 108.907-99.808 186.3-99.808 0.058 0 0.115 0 0.173 0h-0.009c0.031 0 0.068 0 0.105 0 80.187 0 150.528 42.159 190.066 105.52l0.549 0.944c1.312 2.144 2.336 4.416 3.584 6.592h191.168c17.673 0 32 14.327 32 32v0 63.584c0 0.003 0 0.007 0 0.012 0 9.742-4.353 18.467-11.22 24.336l-0.044 0.037zM510.496 30.080c-45.138 0.038-85.88 18.83-114.861 49.002l-0.051 0.054h229.824c-29.022-30.241-69.77-49.038-114.909-49.056h-0.003zM864 143.136h-704v16.384l64 52.256v268.224c0 0.001 0 0.001 0 0.002 0 131.364 87.91 242.195 208.11 276.871l2.034 0.502 53.632 15.008-7.488 55.2c-0.183 1.287-0.288 2.773-0.288 4.284 0 17.673 14.327 32 32 32s32-14.327 32-32c0-1.511-0.105-2.997-0.307-4.452l0.019 0.168-7.488-55.2 53.632-15.008c122.234-35.179 210.144-146.010 210.144-277.374 0-0.001 0-0.001 0-0.002v0-265.6l64-54.496v-16.768z" />
<glyph unicode="&#xe902;" glyph-name="clear_circle" d="M512 874.667c-235.641 0-426.667-191.025-426.667-426.667s191.025-426.667 426.667-426.667c235.641 0 426.667 191.025 426.667 426.667v0c0 235.641-191.025 426.667-426.667 426.667v0zM512 106.667c-188.513 0-341.333 152.82-341.333 341.333s152.82 341.333 341.333 341.333c188.513 0 341.333-152.82 341.333-341.333v0c0-188.513-152.82-341.333-341.333-341.333v0zM643.84 557.227l-22.613 22.613c-3.745 3.984-9.050 6.465-14.933 6.465s-11.188-2.481-14.923-6.454l-0.010-0.011-79.36-78.933-79.36 78.933c-3.745 3.984-9.050 6.465-14.933 6.465s-11.188-2.481-14.923-6.454l-0.010-0.011-22.613-22.613c-3.984-3.745-6.465-9.050-6.465-14.933s2.481-11.188 6.454-14.923l0.011-0.010 78.933-79.36-78.933-79.36c-3.984-3.745-6.465-9.050-6.465-14.933s2.481-11.188 6.454-14.923l0.011-0.010 22.613-22.613c3.745-3.984 9.050-6.465 14.933-6.465s11.188 2.481 14.923 6.454l0.010 0.011 79.36 78.933 79.36-78.933c3.745-3.984 9.050-6.465 14.933-6.465s11.188 2.481 14.923 6.454l0.010 0.011 22.613 22.613c3.984 3.745 6.465 9.050 6.465 14.933s-2.481 11.188-6.454 14.923l-0.011 0.010-78.933 79.36 78.933 79.36c3.984 3.745 6.465 9.050 6.465 14.933s-2.481 11.188-6.454 14.923l-0.011 0.010z" />
<glyph unicode="&#xe903;" glyph-name="edit" d="M960.985 814.277l-82.708 82.708c-31.508 31.508-80.738 31.508-110.277 0l-64.985-64.985c-7.877-7.877-7.877-19.692 0-27.569l167.385-167.385c7.877-7.877 19.692-7.877 27.569 0l64.985 64.985c29.538 31.508 29.538 80.738-1.969 112.246zM647.877 749.292c-7.877 7.877-19.692 7.877-27.569 0l-513.969-513.969-64.985-222.523c-5.908-21.662 13.785-43.323 35.446-37.415l224.492 63.015h-1.969l513.969 513.969c7.877 7.877 7.877 19.692 0 27.569l-165.415 169.354z" />
<glyph unicode="&#xe904;" glyph-name="export_import" d="M681.984 509.44l28.672-29.082 115.917 115.917c3.824 3.596 6.206 8.688 6.206 14.336s-2.382 10.74-6.196 14.326l-0.010 0.010-115.917 117.146-28.672-29.082 81.92-81.92h-559.104v-39.731h557.875zM342.016 181.76l-81.92 81.92h559.104v40.96h-557.875l81.92 81.92-28.672 29.082-117.146-117.146c-3.824-3.596-6.206-8.688-6.206-14.336s2.382-10.74 6.196-14.326l115.927-115.927z" />
<glyph unicode="&#xe905;" glyph-name="export" d="M634.212 490.14h-51.428c0.114 0.1 0.284 0.142 0.384 0.256 2.688 2.702 4.281 6.4 4.281 10.098-0.030 3.931-1.603 7.488-4.142 10.101l0.003-0.003c-5.248 5.262-14.919 5.262-20.196 0-2.56-2.56-4.11-6.244-4.11-10.098 0-3.698 1.422-7.396 4.11-10.098 0.697-0.697 1.636-1.109 2.489-1.636-4.944-2.283-8.313-7.198-8.313-12.9 0-7.823 6.342-14.165 14.165-14.165 0.027 0 0.055 0 0.082 0h62.673c9.074 0 15.545-4.139 18.276-9.756 3.399-6.969 1.052-18.034-6.372-27.534l-107.563-146.702c-14.165-18.091-38.244-15.972-52.878 2.702l-108.004 143.46c-7.196 9.173-9.529 20.38-5.945 27.762 2.816 5.788 9.244 10.069 18.119 10.069h53.66c7.851 0 17.024 4.196 17.024 12.060v44.885c0 31.175 22.841 58.539 50.375 58.539 16.91 0 37.66-4.878 46.763-28.146 2.873-7.296 11.278-10.951 18.631-8.064 7.339 2.859 11.278 11.108 8.42 18.432-11.477 29.369-37.945 46.222-73.87 46.222-43.435 0-78.734-39.836-78.734-86.983v-28.501h-42.268c-20.053 0-35.968-10.197-43.691-26.069-8.448-17.351-4.949-40.377 8.974-58.098l108.004-143.161c13.326-16.981 31.929-26.724 51.058-26.724 18.034 0 34.645 8.747 47.047 24.548l107.563 147.058c13.924 17.778 17.479 39.822 9.259 56.69-7.609 15.673-23.609 25.756-43.847 25.756zM512 909.966c-254.72 0-461.966-207.232-461.966-461.966 0-254.72 207.246-461.966 461.966-461.966s461.966 207.246 461.966 461.966c0 254.734-207.246 461.966-461.966 461.966zM512 42.923c-223.36 0-405.077 181.717-405.077 405.077s181.717 405.077 405.077 405.077 405.077-181.717 405.077-405.077-181.717-405.077-405.077-405.077zM606.521 793.045c-1.121 0.317-2.409 0.499-3.739 0.499-6.525 0-12.025-4.385-13.716-10.369l-0.024-0.1c-2.062-7.595 2.418-15.403 9.97-17.479 142.62-38.983 242.204-169.586 242.204-317.596 0-7.855 6.368-14.222 14.222-14.222s14.222 6.368 14.222 14.222v0c0 160.796-108.188 302.677-263.14 345.045zM512.014 777.23c0.062 0 0.134 0 0.207 0 6.677 0 13.308-0.191 19.891-0.568l-0.911 0.042c7.796 0.076 14.087 6.414 14.087 14.222 0 7.542-5.871 13.713-13.291 14.192l-0.042 0.002c-5.936 0.347-12.898 0.548-19.906 0.555h-0.019c-0.002 0-0.005 0-0.007 0-7.855 0-14.222-6.368-14.222-14.222 0-7.852 6.363-14.218 14.215-14.222v0z" />
<glyph unicode="&#xe906;" glyph-name="help" d="M512 928c-265.097 0-480-214.903-480-480s214.903-480 480-480c265.097 0 480 214.903 480 480v0c0 265.097-214.903 480-480 480v0zM499.2 160c-38.566 0.182-69.759 31.488-69.759 70.079 0 38.704 31.376 70.080 70.080 70.080 38.591 0 69.897-31.193 70.079-69.742v-0.017c0-0.095 0.001-0.208 0.001-0.321 0-38.704-31.376-70.080-70.080-70.080-0.113 0-0.226 0-0.338 0.001h0.017zM560.64 393.6c0-33.225-26.935-60.16-60.16-60.16s-60.16 26.935-60.16 60.16v0c0 77.12 48 116.16 83.2 144.64 96 77.44-33.6 96-89.28 62.080-9.137-6.306-20.449-10.073-32.64-10.073-31.93 0-57.825 25.836-57.92 57.744v0.009c0.341 22.366 13.1 41.674 31.675 51.365l0.325 0.155c34.916 22.316 77.496 35.57 123.171 35.57 1.698 0 3.391-0.018 5.080-0.055l-0.252 0.004c105.28 0 176-61.44 176-152.96 0.64-115.84-119.040-131.84-119.040-187.84z" />
<glyph unicode="&#xe907;" glyph-name="home" d="M841.143 393.143v-274.286q0-14.848-10.825-25.746t-25.746-10.825h-219.429v219.429h-146.286v-219.429h-219.429q-14.848 0-25.746 10.825t-10.825 25.746v274.286q0 0.585 0.293 1.682t0.293 1.682l328.558 270.848 328.558-270.848q0.585-1.17 0.585-3.438zM968.558 432.567l-35.401-42.277q-4.535-5.12-11.995-6.29h-1.682q-7.461 0-11.995 4.023l-395.41 329.728-395.41-329.728q-6.875-4.535-13.678-4.023-7.461 1.17-11.995 6.29l-35.401 42.277q-4.535 5.705-4.023 13.458t6.29 12.288l410.843 342.309q18.286 14.848 43.447 14.848t43.447-14.848l139.41-116.59v111.397q0 7.973 5.12 13.166t13.166 5.12h109.714q7.973 0 13.166-5.12t5.12-13.166v-233.179l125.147-104.009q5.705-4.535 6.29-12.288t-4.023-13.458z" />
<glyph unicode="&#xe908;" glyph-name="logout" d="M180.032 817.12h-105.536v-188.48l105.536 82.944zM614.784 641.408c5.536 2.656 11.072 5.28 16.672 7.744l-240.288 185.856-387.040-299.36h70.368v-474.688h211.104v351.84h109.504l8.64 18.656c44.128 95.648 117.472 164.384 211.040 209.952zM707.52 549.312c-29.696-3.904-96.416-28-147.456-62.944-28.864-19.744-56.256-44.128-81.856-73.536h18.56v-351.84h211.072v425.504l-0.32-0.16v62.976zM1019.872 600.928l-157.056 146.432-11.296-80.672c-63.936-3.712-315.328-32.128-415.84-249.952 157.888 198.88 357.088 172.48 403.552 162.976l-10.688-76.288 191.328 97.504z" />
<glyph unicode="&#xe909;" horiz-adv-x="1113" d="M1110.075 954.806l-0.742-3.71-1.484-5.936-196.638-960.186c-4.452-21.519-28.939-31.907-47.49-20.777l-313.878 188.475c-0.742 0-0.742 0.742-1.484 1.484l-3.71-5.194-30.423-41.554c-0.742-0.742-1.484-2.226-2.226-2.226l-114.272-158.052c-8.904-12.614-28.939-6.678-29.681 8.904l-10.388 287.907v0.742l-333.913 114.272c-26.713 8.904-28.939 46.006-3.71 58.62l1090.041 537.229z" />
<glyph unicode="&#xe90a;" horiz-adv-x="1113" d="M1110.075 951.096l-1.484-5.936-2.226-9.646-558.006-782.099-148.406-203.316c-11.13-11.13 57.136 76.429-1.484-4.452-8.904-12.614-28.939-6.678-29.681 8.904l-10.388 287.907 751.675 708.638z" />
<glyph unicode="&#xe90b;" glyph-name="mail-write" d="M186.754 547.607c0-0.002 0-0.004 0-0.007 0-25.706-20.839-46.545-46.545-46.545s-46.545 20.839-46.545 46.545c0 0.002 0 0.005 0 0.007v0 319.302c0 51.413 41.678 93.091 93.091 93.091v0h651.636c51.413 0 93.091-41.678 93.091-93.091v0-325.818c0-25.706-20.839-46.545-46.545-46.545s-46.545 20.839-46.545 46.545v0 325.818h-651.636v-319.302zM372.936 680.727c-0.002 0-0.004 0-0.007 0-25.706 0-46.545 20.839-46.545 46.545s20.839 46.545 46.545 46.545c0.002 0 0.005 0 0.007 0h279.272c25.703-0.004 46.539-20.842 46.539-46.545s-20.835-46.542-46.538-46.545h-279.273zM372.936 541.091c-0.002 0-0.004 0-0.007 0-25.706 0-46.545 20.839-46.545 46.545s20.839 46.545 46.545 46.545c0.002 0 0.005 0 0.007 0h279.272c25.703-0.004 46.539-20.842 46.539-46.545s-20.835-46.542-46.538-46.545h-279.273zM93.663 494.545v-418.909c0-25.706 20.839-46.545 46.545-46.545h744.727c25.706 0 46.545 20.839 46.545 46.545v0 314.135c0.004 25.703 20.842 46.539 46.545 46.539s46.542-20.835 46.545-46.538v0-314.135c0-77.119-62.517-139.636-139.636-139.636v0h-744.727c-77.119 0-139.636 62.517-139.636 139.636v0 500.317c0.025 25.687 20.855 46.501 46.545 46.501 8.701 0 16.845-2.388 23.812-6.544l-0.213 0.118 441.856-259.956 441.856 259.956c6.485 3.645 14.235 5.792 22.486 5.792 25.706 0 46.545-20.839 46.545-46.545 0-16.547-8.635-31.078-21.645-39.332l-0.19-0.113-465.455-273.873c-6.753-4.038-14.897-6.426-23.599-6.426s-16.845 2.388-23.812 6.544l0.213-0.118-395.311 232.588zM79.979 554.682c-8.472-8.738-20.318-14.161-33.432-14.161-25.706 0-46.545 20.839-46.545 46.545 0 13.16 5.461 25.044 14.241 33.51l0.014 0.014 93.37 93.091c8.472 8.738 20.318 14.161 33.432 14.161 25.706 0 46.545-20.839 46.545-46.545 0-13.16-5.461-25.044-14.241-33.51l-0.014-0.014-93.37-93.091zM945.445 554.682c8.357-8.058 19.744-13.022 32.29-13.022 25.706 0 46.545 20.839 46.545 46.545 0 12.593-5.001 24.018-13.125 32.397l0.012-0.012-93.37 93.091c-8.357 8.058-19.744 13.022-32.29 13.022-25.706 0-46.545-20.839-46.545-46.545 0-12.593 5.001-24.018 13.125-32.397l-0.012 0.012 93.37-93.091z" />
<glyph unicode="&#xe90c;" glyph-name="menu-off" d="M576 704h-480c-19.2 0-32 12.8-32 32s12.8 32 32 32h480c19.2 0 32-12.8 32-32s-12.8-32-32-32zM576 416h-480c-19.2 0-32 12.8-32 32s12.8 32 32 32h480c19.2 0 32-12.8 32-32s-12.8-32-32-32zM928 128h-832c-19.2 0-32 12.8-32 32s12.8 32 32 32h832c19.2 0 32-12.8 32-32s-12.8-32-32-32zM928 416c9.6 0 16 3.2 22.4 9.6 12.8 12.8 9.6 32-3.2 44.8l-134.4 121.6 134.4 121.6c12.8 12.8 12.8 32 3.2 44.8-12.8 12.8-32 12.8-44.8 3.2l-160-144c-6.4-6.4-9.6-16-9.6-22.4s3.2-19.2 9.6-22.4l160-144c6.4-9.6 16-12.8 22.4-12.8z" />
<glyph unicode="&#xe90d;" glyph-name="menu-on" d="M576 704h-480c-19.2 0-32 12.8-32 32s12.8 32 32 32h480c19.2 0 32-12.8 32-32s-12.8-32-32-32zM576 416h-480c-19.2 0-32 12.8-32 32s12.8 32 32 32h480c19.2 0 32-12.8 32-32s-12.8-32-32-32zM928 128h-832c-19.2 0-32 12.8-32 32s12.8 32 32 32h832c19.2 0 32-12.8 32-32s-12.8-32-32-32zM768 416c-9.6 0-16 3.2-22.4 9.6-12.8 12.8-9.6 32 3.2 44.8l134.4 121.6-134.4 121.6c-12.8 12.8-12.8 32-3.2 44.8 12.8 12.8 32 12.8 44.8 3.2l160-144c6.4-6.4 9.6-16 9.6-22.4s-3.2-19.2-9.6-22.4l-160-144c-6.4-9.6-16-12.8-22.4-12.8z" />
<glyph unicode="&#xe90e;" glyph-name="monitor" d="M512 782.748c11.29 0 20.322 9.596 20.322 20.322 0 11.29-9.596 20.322-20.322 20.322-11.29 0-20.322-9.596-20.322-20.322-0.564-11.29 9.032-20.322 20.322-20.322zM924.648 543.4c0 228.057-184.591 412.648-412.648 412.648s-412.648-184.591-412.648-412.648c0-182.333 117.98-336.441 281.685-391.197l-120.238-194.187c0-10.725 7.903-18.064 18.064-18.064h466.276c10.725 0 18.064 7.903 18.064 18.064l-130.399 190.8c168.785 51.369 291.846 208.3 291.846 394.584zM512 851.052c25.967 0 47.418-22.015 47.418-47.418 0-25.967-20.886-47.418-47.418-47.418-25.967 0-47.418 20.886-47.418 47.418s20.886 47.418 47.418 47.418zM512 235.749c-125.319 0-226.928 101.045-226.928 226.928 0 125.319 101.045 226.928 226.928 226.928 125.319 0 226.928-101.045 226.928-226.928-0.564-125.883-101.61-226.928-226.928-226.928zM512 622.43c-88.062 0-159.753-71.691-159.753-159.753s71.691-159.753 159.753-159.753c88.062 0 159.753 71.691 159.753 159.753-0.564 88.062-71.691 159.753-159.753 159.753z" />
<glyph unicode="&#xe90f;" glyph-name="notify" d="M300.8 155.2h424c44.8 0 80 36.8 80 80v299.2c0 11.2-9.6 19.2-19.2 19.2s-19.2-9.6-19.2-19.2v-299.2c0-22.4-17.6-40-40-40h-425.6c-22.4 0-40 17.6-40 40v424c0 22.4 17.6 40 40 40h299.2c11.2 0 19.2 9.6 19.2 19.2s-9.6 19.2-19.2 19.2h-299.2c-44.8 0-80-36.8-80-80v-424c0-41.6 35.2-78.4 80-78.4zM656 667.2c0-42.415 34.385-76.8 76.8-76.8s76.8 34.385 76.8 76.8v0c0 42.415-34.385 76.8-76.8 76.8s-76.8-34.385-76.8-76.8v0z" />
<glyph unicode="&#xe910;" glyph-name="refresh" d="M936.594 356.571q0-2.853-0.585-4.023-36.571-153.161-153.161-248.32t-273.115-95.159q-83.456 0-161.426 31.451t-139.118 89.746l-73.728-73.728q-10.825-10.825-25.746-10.825t-25.746 10.825-10.825 25.746v256q0 14.848 10.825 25.746t25.746 10.825h256q14.848 0 25.746-10.825t10.825-25.746-10.825-25.746l-78.263-78.263q40.594-37.742 92.014-58.295t106.862-20.553q76.581 0 142.848 37.157t106.277 102.254q6.29 9.728 30.281 66.853 4.535 13.166 17.115 13.166h109.714q7.461 0 12.873-5.413t5.413-12.873zM950.857 813.714v-256q0-14.848-10.825-25.746t-25.746-10.825h-256q-14.848 0-25.746 10.825t-10.825 25.746 10.825 25.746l78.848 78.848q-84.553 78.263-199.461 78.263-76.581 0-142.848-37.157t-106.277-102.254q-6.29-9.728-30.281-66.853-4.535-13.166-17.115-13.166h-113.737q-7.461 0-12.873 5.413t-5.413 12.873v4.023q37.157 153.161 154.258 248.32t274.286 95.159q83.456 0 162.304-31.744t139.995-89.454l74.313 73.728q10.825 10.825 25.746 10.825t25.746-10.825 10.825-25.746z" />
<glyph unicode="&#xe911;" glyph-name="search" d="M662.635 499.437q0 87.1-61.912 149.013t-149.013 61.912-149.013-61.912-61.912-149.013 61.912-149.013 149.013-61.912 149.013 61.912 61.912 149.013zM903.69 107.722q0-24.482-17.891-42.373t-42.373-17.891q-25.424 0-42.373 17.891l-161.488 161.017q-84.276-58.381-187.853-58.381-67.326 0-128.768 26.13t-105.933 70.622-70.622 105.933-26.13 128.768 26.13 128.768 70.622 105.933 105.933 70.622 128.768 26.13 128.767-26.13 105.933-70.622 70.622-105.933 26.13-128.768q0-103.578-58.381-187.853l161.488-161.488q17.421-17.421 17.421-42.373z" />
<glyph unicode="&#xe912;" glyph-name="setting" d="M571.738 903.516v-90.746c0.001-12.726 8.7-23.421 20.476-26.462l0.19-0.042c37.976-9.725 71.33-24.506 101.452-43.877l-1.359 0.818c4.148-2.67 9.212-4.256 14.647-4.256 7.548 0 14.381 3.060 19.327 8.006l65.383 65.383 84.485-84.485-67.282-67.282c-4.946-4.946-8.005-11.779-8.005-19.326 0-5.138 1.418-9.945 3.883-14.050l-0.069 0.124c17.080-28.312 30.597-61.135 38.781-96.011l0.459-2.318c2.868-12.261 13.707-21.252 26.646-21.253h96.763v-119.476h-98.661c0 0-0.001 0-0.002 0-12.727 0-23.423-8.699-26.464-20.476l-0.042-0.19c-9.275-36.245-23.078-68.080-41.081-97.033l0.843 1.455c-2.531-4.066-4.032-9.002-4.032-14.288 0-7.547 3.059-14.379 8.004-19.325l70.259-70.259-84.485-84.485-70.259 70.259c-4.946 4.946-11.778 8.004-19.325 8.004-5.286 0-10.222-1.501-14.404-4.1l0.116 0.067c-27.498-17.16-59.333-30.964-93.2-39.717l-2.378-0.522c-11.965-3.085-20.662-13.779-20.662-26.505 0-0.001 0-0.002 0-0.003v0-98.661h-119.48v96.763c0 12.939-8.992 23.778-21.068 26.609l-0.185 0.037c-37.195 8.643-70.017 22.16-99.878 40.103l1.548-0.863c-3.982 2.397-8.789 3.814-13.927 3.814-7.547 0-14.38-3.059-19.326-8.005l-67.282-67.282-84.485 84.485 65.383 65.383c4.948 4.946 8.008 11.78 8.008 19.329 0 5.434-1.586 10.498-4.32 14.754l0.065-0.109c-18.555 28.763-33.337 62.117-42.541 97.714l-0.522 2.379c-3.084 11.964-13.778 20.662-26.504 20.662h-90.746v119.48h88.847c12.939 0 23.778 8.992 26.609 21.068l0.037 0.185c9.056 38.948 23.533 73.313 42.841 104.361l-0.842-1.454c2.531 4.066 4.032 9.002 4.032 14.288 0 7.547-3.059 14.379-8.004 19.325l-62.344 62.344 84.485 84.485 62.344-62.344c4.946-4.946 11.778-8.004 19.325-8.004 5.286 0 10.222 1.501 14.404 4.1l-0.116-0.067c29.595 18.466 63.96 32.943 100.591 41.54l2.319 0.459c12.257 2.871 21.245 13.708 21.245 26.645 0 0 0 0.001 0 0.001v0 88.847h119.48zM318.326 803.463l-66.852 66.855c-4.946 4.946-11.779 8.006-19.327 8.006s-14.381-3.059-19.327-8.006l-123.139-123.135c-4.946-4.946-8.006-11.779-8.006-19.327s3.059-14.381 8.006-19.327l66.855-66.859c-12.535-22.634-23.556-48.926-31.672-76.463l-0.71-2.808h-95.002c-15.094 0-27.331-12.236-27.331-27.331v0-174.138c0-15.094 12.236-27.331 27.331-27.331v0h97.367c9.198-29.332 20.334-54.644 33.854-78.424l-1.027 1.963-69.665-69.668c-4.946-4.946-8.006-11.779-8.006-19.327s3.059-14.381 8.006-19.327l123.135-123.135c4.946-4.946 11.779-8.006 19.327-8.006s14.381 3.059 19.327 8.006l72.026 72.026c21.060-11.279 45.638-21.364 71.297-28.925l2.807-0.709v-102.921c0-15.094 12.236-27.331 27.331-27.331v0h174.138c15.094 0 27.331 12.236 27.331 27.331v0 105.283c27.478 8.609 51.099 18.792 73.413 31.057l-2.058-1.036 74.778-74.778c4.946-4.945 11.778-8.004 19.325-8.004s14.379 3.059 19.325 8.004l123.135 123.139c4.946 4.946 8.006 11.779 8.006 19.327s-3.059 14.381-8.006 19.327l-74.774 74.774c11.228 20.256 21.411 43.876 29.249 68.54l0.771 2.812h105.283c15.094 0 27.331 12.236 27.331 27.331v174.142c0 15.094-12.236 27.331-27.331 27.331v0h-102.921c-8.271 28.466-18.355 53.044-30.675 76.253l1.041-2.15 72.026 72.026c4.946 4.946 8.006 11.779 8.006 19.327s-3.059 14.381-8.006 19.327l-123.135 123.135c-4.946 4.946-11.779 8.006-19.327 8.006s-14.381-3.059-19.327-8.006l-69.668-69.665c-21.817 12.492-47.129 23.628-73.648 32.055l-2.813 0.771v97.367c0 15.094-12.236 27.331-27.331 27.331h-174.138c-15.094 0-27.331-12.236-27.331-27.331v0-95.002c-30.345-8.825-56.636-19.847-81.328-33.418l2.058 1.036zM659.85 310.638c34.831 37.219 56.222 87.393 56.222 142.562 0 0.093 0 0.187 0 0.28v-0.015c0 115.723-93.814 209.537-209.537 209.537s-209.537-93.814-209.537-209.537 93.814-209.537 209.537-209.537c0.002 0 0.003 0 0.005 0 15.094 0 27.331 12.236 27.331 27.331s-12.236 27.331-27.331 27.331c-0.002 0-0.004 0-0.005 0v0c-85.535 0-154.875 69.34-154.875 154.875s69.34 154.875 154.875 154.875 154.875-69.34 154.875-154.875c0-0.079 0-0.172 0-0.265 0-40.752-15.808-77.813-41.626-105.383l0.079 0.085c-4.435-4.842-7.152-11.321-7.152-18.434 0-15.094 12.236-27.331 27.331-27.331 7.79 0 14.819 3.259 19.798 8.489l0.011 0.011z" />
<glyph unicode="&#xe913;" glyph-name="volume_up" horiz-adv-x="1097" d="M533.138 960c28.379 0 61.659-19.456 61.659-74.094v-875.154c-0.146-55.15-33.207-74.752-61.586-74.752-25.966 0-54.711 15.653-85.504 46.373l-226.304 227.182h-102.473c-65.719 0.166-118.93 53.48-118.93 119.222 0 0 0 0 0 0v0 238.958c0 65.829 53.394 119.223 118.93 119.223h102.473l226.304 227.109c30.427 30.427 59.246 45.934 85.504 45.934zM515.365 868.425c-4.171-3.51-7.938-6.999-11.534-10.656l-0.022-0.023-237.934-238.592c-7.161-7.228-17.089-11.703-28.062-11.703-0.009 0-0.017 0-0.026 0h-118.856c-21.887-0.083-39.602-17.824-39.643-39.713v-238.742c0-21.943 17.847-39.717 39.643-39.717h118.784c0.007 0 0.016 0 0.024 0 10.974 0 20.902-4.475 28.059-11.7l0.003-0.003 238.007-238.811c4.242-4.169 8.046-7.68 11.483-10.679v840.338zM897.755 841.362c85.504-97.865 172.763-220.965 172.763-392.997s-87.406-295.205-172.763-392.923c-7.26-8.439-17.952-13.751-29.885-13.751-10.019 0-19.163 3.744-26.11 9.909l0.041-0.035c-8.271 7.351-13.457 18.018-13.457 29.896 0 10.050 3.712 19.233 9.84 26.252l-0.040-0.047c79.579 91.063 153.161 195.218 153.161 340.553 0 145.262-73.655 249.563-153.161 340.48-6.149 6.98-9.902 16.199-9.902 26.294 0 11.916 5.228 22.61 13.515 29.915l0.044 0.038c6.931 6.151 16.108 9.908 26.163 9.908 11.867 0 22.512-5.234 29.752-13.519l0.040-0.046zM765.367 703.049c6.437-9.143 13.166-18.066 19.749-26.77 42.789-56.978 87.259-115.712 87.259-228.206 0-108.91-48.859-175.323-91.867-234.057l-15.214-20.846c-7.363-9.978-19.077-16.379-32.285-16.379-8.683 0-16.719 2.766-23.277 7.465l0.12-0.082c-10.026 7.36-16.461 19.101-16.461 32.346 0 8.688 2.769 16.73 7.474 23.29l-0.082-0.12 15.653 21.504c41.106 55.881 76.507 104.009 76.507 186.953 0 85.723-31.378 127.415-71.095 180.151-5.159 6.593-12.051 15.832-18.798 25.183l-2.194 3.196c-4.659 6.433-7.453 14.483-7.453 23.185 0 13.269 6.495 25.021 16.48 32.25l0.116 0.080c6.404 4.666 14.429 7.465 23.108 7.465 13.23 0 24.94-6.504 32.108-16.489l0.081-0.118z" />
</font>
</defs>
</svg>
