<?xml version="1.0" standalone="no"?><!DOCTYPE svg PUBLIC "-//W3C//DTD SVG 1.1//EN" "http://www.w3.org/Graphics/SVG/1.1/DTD/svg11.dtd"><svg t="1610538819944" class="icon" viewBox="0 0 1024 1024" version="1.1" xmlns="http://www.w3.org/2000/svg" p-id="789" xmlns:xlink="http://www.w3.org/1999/xlink" width="200" height="200"><defs><style type="text/css"></style></defs><path d="M695.242 128c-81.882 0-158.242 28-183.156 88.99C485 156 410.816 128 328.932 128 218.53 128 128 179.96 128 286l0 2 0 17.99L128 834l0 18 12.43 0 21.916 0 9.934 0c25.72-52.668 88.476-84 156.65-84 80.448 0 147.754 55.056 163.234 128l39.428 0c15.478-72.944 82.99-128 163.444-128 68.17 0 122.298 23.332 156.858 84l9.934 0 21.918 0L896 852l0-34L896 296l0-8 0-2C896 179.96 805.646 128 695.242 128zM496 821.852C460 770.11 398.54 736 329 736c-69.538 0-129 20.11-167 71.852l-2 1.074L160 284l0 0 0-2c6-83.65 80.178-122 168.586-122 90.324 0 164.29 37.416 166.726 123.616-0.034 1.458 0.032 2.918 0.032 4.384L496 314.206 496 821.852zM864 296l0 511.852C828 756.11 764.538 736 695 736c-69.54 0-131 34.11-167 85.852L528 290l0-2c0-88.224 75.318-128 167.174-128C783.58 160 858 182.35 864 266l0 2L864 296z" p-id="790"></path></svg>