<?xml version="1.0" standalone="no"?><!DOCTYPE svg PUBLIC "-//W3C//DTD SVG 1.1//EN" "http://www.w3.org/Graphics/SVG/1.1/DTD/svg11.dtd"><svg t="1610540301931" class="icon" viewBox="0 0 1024 1024" version="1.1" xmlns="http://www.w3.org/2000/svg" p-id="7519" xmlns:xlink="http://www.w3.org/1999/xlink" width="200" height="200"><defs><style type="text/css"></style></defs><path d="M512 922c-55.3 0-109-10.8-159.6-32.2-48.8-20.7-92.7-50.2-130.3-87.9-37.6-37.6-67.2-81.5-87.9-130.3C112.8 621 102 567.3 102 512s10.8-109 32.2-159.6c20.7-48.8 50.2-92.7 87.9-130.3 37.6-37.6 81.5-67.2 130.3-87.9C403 112.8 456.7 102 512 102s109 10.8 159.6 32.2c48.8 20.7 92.7 50.2 130.3 87.9 37.6 37.6 67.2 81.5 87.9 130.3C911.2 403 922 456.7 922 512s-10.8 109-32.2 159.6c-20.7 48.8-50.2 92.7-87.9 130.3-37.6 37.6-81.5 67.2-130.3 87.9C621 911.2 567.3 922 512 922z m0-750c-187.5 0-340 152.5-340 340s152.5 340 340 340 340-152.5 340-340-152.5-340-340-340z" fill="#151515" p-id="7520"></path><path d="M247.9 811.1c-9 0-17.9-3.4-24.7-10.3-13.7-13.7-13.7-35.8 0-49.5l528.2-528.2c13.7-13.7 35.8-13.7 49.5 0 13.7 13.7 13.7 35.8 0 49.5L272.6 800.8c-6.8 6.9-15.7 10.3-24.7 10.3z" fill="#151515" p-id="7521"></path></svg>