<?xml version="1.0" standalone="no"?><!DOCTYPE svg PUBLIC "-//W3C//DTD SVG 1.1//EN" "http://www.w3.org/Graphics/SVG/1.1/DTD/svg11.dtd"><svg t="1598749258145" class="icon" viewBox="0 0 1024 1024" version="1.1" xmlns="http://www.w3.org/2000/svg" p-id="3449" xmlns:xlink="http://www.w3.org/1999/xlink" width="200" height="200"><defs><style type="text/css"></style></defs><path d="M512 85.333333a426.666667 426.666667 0 1 0 426.666667 426.666667A426.666667 426.666667 0 0 0 512 85.333333z m0 768a341.333333 341.333333 0 1 1 341.333333-341.333333 341.333333 341.333333 0 0 1-341.333333 341.333333z m131.84-450.56l-22.613333-22.613333a20.48 20.48 0 0 0-29.866667 0L512 459.093333l-79.36-78.933333a20.48 20.48 0 0 0-29.866667 0l-22.613333 22.613333a20.48 20.48 0 0 0 0 29.866667L459.093333 512l-78.933333 79.36a20.48 20.48 0 0 0 0 29.866667l22.613333 22.613333a20.48 20.48 0 0 0 29.866667 0L512 564.906667l79.36 78.933333a20.48 20.48 0 0 0 29.866667 0l22.613333-22.613333a20.48 20.48 0 0 0 0-29.866667L564.906667 512l78.933333-79.36a20.48 20.48 0 0 0 0-29.866667z" p-id="3450"></path></svg>