<?xml version="1.0" standalone="no"?><!DOCTYPE svg PUBLIC "-//W3C//DTD SVG 1.1//EN" "http://www.w3.org/Graphics/SVG/1.1/DTD/svg11.dtd"><svg t="1601715676253" class="icon" viewBox="0 0 1070 1024" version="1.1" xmlns="http://www.w3.org/2000/svg" p-id="1796" xmlns:xlink="http://www.w3.org/1999/xlink" width="208.984375" height="200"><defs><style type="text/css"></style></defs><path d="M917.932697 525.143325h46.862858v-32.276406h-117.307148c-9.310502-20.172753-19.552053-37.552356-30.719482-52.138809l-32.586756 11.793302c11.172602 12.724352 20.793454 26.069404 28.552205 40.345507h-122.893449v32.276406h47.173208c13.034702 45.000758 36.310956 84.410042 69.828762 118.548548-32.276406 27.310805-73.242613 47.173208-122.583098 59.89756l17.379603 28.552205c50.587059-14.276102 93.415366-36.931656 128.169399-67.656312 32.891933 27.310805 74.16849 50.276709 123.824499 68.892539l17.995131-27.621154c-47.173208-17.379603-86.892842-38.478234-118.858898-63.926939 28.54186-31.340183 50.266364-70.133939 65.163166-116.686447z m-149.893903 0h116.38127c-12.103652 37.552356-30.414305 69.828762-54.62161 96.513694-28.552205-27.931505-49.035308-59.892388-61.75966-96.513694z" p-id="1797"></path><path d="M985.935566 139.005789h-453.773158L505.674031 0H84.239349C37.702359 0 0 37.702359 0 84.239349v716.51034c0 46.53699 37.702359 84.239349 84.239349 84.23935h384.446129l-30.543618 139.005788h547.793706c46.53699 0 84.239349-37.702359 84.239349-84.239349V223.245138c0-46.531818-37.707531-84.239349-84.239349-84.239349zM291.346285 581.502894H126.245229V359.923302h159.825105v31.035005H162.556185v61.444138h116.065748v31.035005H162.556185v67.030439h128.7901v31.035005z m174.10638 0h-35.379907V485.6099c0-26.379755-12.103652-39.414457-36.310956-39.414456-8.689801 0-16.448553 3.103501-22.965904 9.310501-7.448401 6.827701-11.793302 16.758903-13.034702 29.483255v96.513694h-35.379906V421.062262h35.379906v18.621003c6.207001-7.448401 13.345052-13.345052 21.103804-17.069253 8.069101-4.034551 16.758903-5.896651 26.379754-5.896651 40.035157 0 60.20791 21.724504 60.207911 65.794211v98.991322z m562.721543 358.257757a42.114502 42.114502 0 0 1-42.119674 42.119674H490.642744l21.238288-96.648179h158.09749l-90.44635-503.408476-0.594838 2.622458-3.817306-20.162408 1.313816 0.47587-32.933314-183.634127h442.554004a42.114502 42.114502 0 0 1 42.119674 42.119675v716.515513z" p-id="1798"></path></svg>