<?xml version="1.0" standalone="no"?><!DOCTYPE svg PUBLIC "-//W3C//DTD SVG 1.1//EN" "http://www.w3.org/Graphics/SVG/1.1/DTD/svg11.dtd"><svg t="1610540611377" class="icon" viewBox="0 0 1024 1024" version="1.1" xmlns="http://www.w3.org/2000/svg" p-id="8259" xmlns:xlink="http://www.w3.org/1999/xlink" width="200" height="200"><defs><style type="text/css"></style></defs><path d="M509.2 132.8c50.9 0 100.2 9.9 146.6 29.6 44.8 19 85.1 46.1 119.7 80.7 34.6 34.6 61.8 74.9 80.7 119.7 19.6 46.4 29.6 95.7 29.6 146.6s-9.9 100.2-29.6 146.6c-19 44.8-46.1 85.1-80.7 119.7-34.6 34.6-74.9 61.8-119.7 80.7C609.4 876 560.1 886 509.2 886s-100.2-9.9-146.6-29.6c-44.8-19-85.1-46.1-119.7-80.7-34.6-34.6-61.8-74.9-80.7-119.7-19.6-46.4-29.6-95.7-29.6-146.6s9.9-100.2 29.6-146.6c19-44.8 46.1-85.1 80.7-119.7s74.9-61.8 119.7-80.7c46.4-19.7 95.7-29.6 146.6-29.6m0-61.2c-241.8 0-437.8 196-437.8 437.8s196 437.8 437.8 437.8S947 751.2 947 509.4 751 71.6 509.2 71.6zM312.2 312.4l394 394" p-id="8260"></path><path d="M706.2 737c-7.8 0-15.7-3-21.6-9l-394-393.9c-11.9-11.9-11.9-31.3 0-43.3 11.9-11.9 31.3-11.9 43.3 0l393.9 393.9c11.9 11.9 11.9 31.3 0 43.3-6 6-13.8 9-21.6 9z" p-id="8261"></path><path d="M312.2 706.4l394-394M312.2 737c-7.8 0-15.7-3-21.6-9-11.9-11.9-11.9-31.3 0-43.3l393.9-393.9c11.9-11.9 31.3-11.9 43.3 0 11.9 11.9 11.9 31.3 0 43.3L333.9 728c-6 6-13.8 9-21.7 9z" p-id="8262"></path></svg>