<?xml version="1.0" standalone="no"?><!DOCTYPE svg PUBLIC "-//W3C//DTD SVG 1.1//EN" "http://www.w3.org/Graphics/SVG/1.1/DTD/svg11.dtd"><svg t="1598749590383" class="icon" viewBox="0 0 1024 1024" version="1.1" xmlns="http://www.w3.org/2000/svg" p-id="7385" xmlns:xlink="http://www.w3.org/1999/xlink" width="200" height="200"><defs><style type="text/css"></style></defs><path d="M634.211556 469.859556h-51.427556c0.113778-0.099556 0.284444-0.142222 0.384-0.256 2.688-2.702222 4.280889-6.4 4.280889-10.097778a14.648889 14.648889 0 0 0-4.138667-10.097778c-5.248-5.262222-14.919111-5.262222-20.195555 0-2.56 2.56-4.110222 6.243556-4.110223 10.097778 0 3.697778 1.422222 7.395556 4.110223 10.097778 0.696889 0.696889 1.635556 1.109333 2.488889 1.635555a14.165333 14.165333 0 0 0 5.930666 27.064889h62.677334c9.073778 0 15.544889 4.138667 18.275555 9.756444 3.399111 6.968889 1.052444 18.033778-6.371555 27.534223l-107.562667 146.702222c-14.165333 18.090667-38.243556 15.971556-52.878222-2.702222l-108.003556-143.459556c-7.196444-9.173333-9.528889-20.380444-5.944889-27.761778 2.816-5.788444 9.244444-10.069333 18.119111-10.069333h53.660445c7.850667 0 17.024-4.195556 17.024-12.060444v-44.885334c0-31.175111 22.840889-58.538667 50.375111-58.538666 16.910222 0 37.660444 4.878222 46.762667 28.145777 2.872889 7.296 11.278222 10.951111 18.631111 8.064 7.338667-2.858667 11.278222-11.107556 8.419555-18.432-11.477333-29.368889-37.944889-46.222222-73.870222-46.222222-43.434667 0-78.734222 39.836444-78.734222 86.983111v28.501334h-42.268445c-20.053333 0-35.968 10.197333-43.690666 26.069333-8.448 17.351111-4.949333 40.376889 8.974222 58.097778l108.003555 143.160889c13.326222 16.981333 31.928889 26.723556 51.057778 26.723555 18.033778 0 34.645333-8.746667 47.047111-24.547555l107.562667-147.057778c13.923556-17.777778 17.479111-39.822222 9.258667-56.689778-7.608889-15.672889-23.608889-25.756444-43.847111-25.756444z" fill="" p-id="7386"></path><path d="M512 50.033778C257.28 50.033778 50.033778 257.265778 50.033778 512 50.033778 766.72 257.28 973.966222 512 973.966222S973.966222 766.72 973.966222 512C973.966222 257.265778 766.72 50.033778 512 50.033778z m0 867.043555C288.64 917.077333 106.922667 735.36 106.922667 512S288.64 106.922667 512 106.922667 917.077333 288.64 917.077333 512 735.36 917.077333 512 917.077333z" fill="" p-id="7387"></path><path d="M606.520889 166.954667a14.250667 14.250667 0 0 0-17.479111 9.969777c-2.062222 7.594667 2.417778 15.402667 9.969778 17.479112C741.632 233.386667 841.216 363.989333 841.216 512a14.222222 14.222222 0 0 0 28.444444 0c0-160.796444-108.188444-302.677333-263.139555-345.045333zM512.014222 182.769778a342.485333 342.485333 0 0 1 19.185778 0.526222 14.222222 14.222222 0 0 0 0.753778-28.416 370.631111 370.631111 0 0 0-19.925334-0.554667 14.222222 14.222222 0 0 0-0.014222 28.444445z" fill="" p-id="7388"></path></svg>