<?xml version="1.0" standalone="no"?><!DOCTYPE svg PUBLIC "-//W3C//DTD SVG 1.1//EN" "http://www.w3.org/Graphics/SVG/1.1/DTD/svg11.dtd"><svg t="1608126470520" class="icon" viewBox="0 0 1024 1024" version="1.1" xmlns="http://www.w3.org/2000/svg" p-id="3268" xmlns:xlink="http://www.w3.org/1999/xlink" width="200" height="200"><defs><style type="text/css"></style></defs><path d="M960 744.512l-103.296 0-70.208 0.128c0.064-20.096 0.384-9.664 0.128-25.216-0.832-54.464-38.848-80.256-53.056-88.768 19.136-11.2 42.688-22.976 42.688-22.976l-0.192-21.696c0 0-28.544-24.512-40.768-69.184-7.488-4.032-14.784 1.792-16.192-39.104-0.64-18.176 11.136-17.664 11.328-17.6-0.064-0.832-0.128-4.864-0.128-32.64 0-18.112 2.176-26.944 11.84-32.768C742.208 394.432 736.192 358.4 811.52 357.056c91.712 0 79.744 75.456 79.744 70.336 0 27.776-0.064 31.808-0.128 32.64 0.192-0.064 12.352-0.576 11.712 17.6-1.472 40.96-7.68 35.072-15.168 39.104-12.224 44.736-42.56 69.184-42.56 69.184l-0.192 21.696 80.32 36.608c0 0 34.944 12.8 34.752 49.984L960 744.512zM64 744.512l103.296 0 70.208 0.128c-0.064-20.096-0.384-9.664-0.128-25.216 0.832-54.464 38.848-80.256 53.056-88.768C271.168 619.52 247.68 607.744 247.68 607.744l0.192-21.696c0 0 28.544-24.512 40.768-69.184C296.128 512.768 303.36 518.592 304.832 477.696c0.64-18.176-11.136-17.664-11.328-17.6 0.064-0.832 0.128-4.864 0.128-32.64 0-18.112-2.176-26.944-11.84-32.768C281.792 394.432 287.808 358.4 212.48 357.056c-91.712 0-79.744 75.456-79.744 70.336 0 27.776 0.064 31.808 0.128 32.64C132.608 460.032 120.512 459.456 121.152 477.632c1.472 40.96 7.68 35.072 15.168 39.104C148.48 561.536 178.88 585.984 178.88 585.984l0.192 21.696-80.32 36.608c0 0-34.944 12.8-34.752 49.984L64 744.512zM285.952 811.52l-0.32-87.168c-0.256-56.512 52.8-75.904 52.8-75.904l105.664-49.088L443.776 560c0 0-33.024-26.368-51.52-94.208-11.328-6.144-25.6-8.064-27.776-70.208C363.52 368 380.672 370.944 380.992 371.008 380.864 369.728 380.8 361.472 380.8 319.36c0-27.456 3.904-40.96 18.624-49.728 0-0.064-0.064-0.192-0.064-0.32 0 0-5.824-54.72 108.48-56.768L507.84 212.48c0.192 0 0.32 0 0.512 0 0.384 0 0.512 0 0.512 0 143.616 0 126.08 114.56 126.08 106.816 0 42.112-0.128 50.368-0.192 51.712 0.32-0.064 17.472-3.008 16.512 24.576-2.176 62.144-16.448 64-27.776 70.208C604.864 533.632 571.392 560 571.392 560L571.072 599.424l106.176 49.088c0 0 65.728 17.984 65.472 88.128l0 74.88L285.952 811.52 285.952 811.52z" p-id="3269"></path></svg>