<?xml version="1.0" standalone="no"?><!DOCTYPE svg PUBLIC "-//W3C//DTD SVG 1.1//EN" "http://www.w3.org/Graphics/SVG/1.1/DTD/svg11.dtd"><svg t="1597488382818" class="icon" viewBox="0 0 1024 1024" version="1.1" xmlns="http://www.w3.org/2000/svg" p-id="4740" xmlns:xlink="http://www.w3.org/1999/xlink" width="200" height="200"><defs><style type="text/css"></style></defs><path d="M186.753862 412.392727a46.545455 46.545455 0 1 1-93.090909 0V93.090909a93.090909 93.090909 0 0 1 93.090909-93.090909h651.636363a93.090909 93.090909 0 0 1 93.09091 93.090909v325.818182a46.545455 46.545455 0 0 1-93.09091 0V93.090909H186.753862v319.301818z" fill="#313645" p-id="4741"></path><path d="M372.93568 279.272727a46.545455 46.545455 0 1 1 0-93.090909h279.272727a46.545455 46.545455 0 0 1 0 93.090909H372.93568zM372.93568 418.909091a46.545455 46.545455 0 1 1 0-93.090909h279.272727a46.545455 46.545455 0 0 1 0 93.090909H372.93568z" fill="#313645" p-id="4742"></path><path d="M93.662953 465.454545v418.909091a46.545455 46.545455 0 0 0 46.545454 46.545455h744.727273a46.545455 46.545455 0 0 0 46.545455-46.545455v-314.135272a46.545455 46.545455 0 0 1 93.090909 0V884.363636a139.636364 139.636364 0 0 1-139.636364 139.636364H140.208407a139.636364 139.636364 0 0 1-139.636363-139.636364V384.046545a46.545455 46.545455 0 0 1 70.144-40.075636L512.572044 603.927273l441.856-259.956364a46.545455 46.545455 0 0 1 47.197091 80.197818l-465.454546 273.873455a46.545455 46.545455 0 0 1-47.197091 0L93.662953 465.454545z" fill="#313645" p-id="4743"></path><path d="M79.978589 405.317818A46.545455 46.545455 0 1 1 14.256407 339.409455l93.370182-93.09091a46.545455 46.545455 0 1 1 65.722182 65.908364l-93.370182 93.090909zM945.444771 405.317818a46.545455 46.545455 0 0 0 65.722182-65.908363l-93.370182-93.09091a46.545455 46.545455 0 0 0-65.722182 65.908364l93.370182 93.090909z" fill="#313645" p-id="4744"></path></svg>