<?xml version="1.0" standalone="no"?><!DOCTYPE svg PUBLIC "-//W3C//DTD SVG 1.1//EN" "http://www.w3.org/Graphics/SVG/1.1/DTD/svg11.dtd"><svg t="1597488255169" class="icon" viewBox="0 0 1113 1024" version="1.1" xmlns="http://www.w3.org/2000/svg" p-id="1232" xmlns:xlink="http://www.w3.org/1999/xlink" width="217.3828125" height="200"><defs><style type="text/css"></style></defs><path d="M1110.075362 5.194203l-0.742029 3.710145-1.484058 5.936232-196.637681 960.185507c-4.452174 21.518841-28.93913 31.907246-47.489855 20.776812l-313.136232-187.733334-0.742029-0.742029c-0.742029 0-0.742029-0.742029-1.484058-1.484058l-3.710145 5.194203-30.423188 41.553623c-0.742029 0.742029-1.484058 2.226087-2.226087 2.226087l-114.272464 158.052174c-8.904348 12.614493-28.93913 6.678261-29.681159-8.904348l-10.388406-287.907246v-0.742029L23.744928 601.043478c-26.713043-8.904348-28.93913-46.005797-3.710145-58.62029L1110.075362 5.194203z" fill="#6097FD" p-id="1233"></path><path d="M1110.075362 8.904348l-1.484058 5.936232-2.226087 9.646377-558.005797 782.09855-148.405797 203.315942c-11.130435 11.130435 57.136232-76.428986-1.484058 4.452174-8.904348 12.614493-28.93913 6.678261-29.681159-8.904348l-10.388406-287.907246L1110.075362 8.904348z" fill="#2767F4" p-id="1234"></path></svg>