<?xml version="1.0" standalone="no"?><!DOCTYPE svg PUBLIC "-//W3C//DTD SVG 1.1//EN" "http://www.w3.org/Graphics/SVG/1.1/DTD/svg11.dtd"><svg t="1598970059333" class="icon" viewBox="0 0 1024 1024" version="1.1" xmlns="http://www.w3.org/2000/svg" p-id="1179" xmlns:xlink="http://www.w3.org/1999/xlink" width="200" height="200"><defs><style type="text/css"></style></defs><path d="M300.8 804.8h424c44.8 0 80-36.8 80-80V425.6c0-11.2-9.6-19.2-19.2-19.2s-19.2 9.6-19.2 19.2v299.2c0 22.4-17.6 40-40 40H300.8c-22.4 0-40-17.6-40-40V300.8c0-22.4 17.6-40 40-40h299.2c11.2 0 19.2-9.6 19.2-19.2s-9.6-19.2-19.2-19.2H300.8c-44.8 0-80 36.8-80 80v424c0 41.6 35.2 78.4 80 78.4z" fill="#707070" p-id="1180"></path><path d="M732.8 292.8m-76.8 0a76.8 76.8 0 1 0 153.6 0 76.8 76.8 0 1 0-153.6 0Z" fill="#707070" p-id="1181"></path></svg>