<?xml version="1.0" standalone="no"?><!DOCTYPE svg PUBLIC "-//W3C//DTD SVG 1.1//EN" "http://www.w3.org/Graphics/SVG/1.1/DTD/svg11.dtd"><svg t="1605190367382" class="icon" viewBox="0 0 1024 1024" version="1.1" xmlns="http://www.w3.org/2000/svg" p-id="1059" xmlns:xlink="http://www.w3.org/1999/xlink" width="200" height="200"><defs><style type="text/css"></style></defs><path d="M941 553.31c-13-45.75-44.57-156.57-58-197.42-2.15-6.52-4.35-13.24-6.59-20.1-5.19-15.9-10.56-32.34-16.35-49.3C828.32 193.65 785.45 135.21 729 107.8c-25.05-12.16-52.51-18.24-82.77-18.24-32.08 0-67.31 6.84-106.18 20.51a57.79 57.79 0 0 1-7 2l-284.28 60.66a64.1 64.1 0 0 1-13.32 1.4h-63c-48.51 0-88 39.65-88 88.37v324.78c0 48.72 39.47 88.36 88 88.36h197.1c58.78 0 122.61 88.72 151.05 141.13 6.83 12.59 17.76 42.36 22.25 58.62 0.35 1.27 0.71 2.64 1.1 4.08 2.91 10.94 7.3 27.46 16.66 41.81 12.44 19.06 30.77 29.78 53 31 22.71 1.25 46.54-12 67.08-37.24 24.48-30.12 44.16-79.41 32.91-121.6l-0.17-0.6-35.19-117.2h170.93a95.54 95.54 0 0 0 58.67-19.9 98.09 98.09 0 0 0 34.16-49.9c4.69-15.99 4.35-33.66-1-52.53zM172.42 214h51.07v421.8h-51.07c-26.54 0-48.13-21.77-48.13-48.52V262.5c0-26.75 21.59-48.5 48.13-48.5z m731.36 380.66a57.29 57.29 0 0 1-54.61 41.14H671.72a35.05 35.05 0 0 0-33.8 44.13l0.17 0.6L675.16 804c6.24 24-4.41 60.1-25.41 85.94-11.56 14.22-24.9 23.09-34 22.59-9.7-0.53-16.23-4.42-21.82-13-5.87-9-9-20.79-11.53-30.27-0.42-1.57-0.81-3.06-1.2-4.46-4.64-16.81-16.64-50.44-25.63-67s-33.84-59.44-69.12-97.42c-39.8-42.83-79.14-64.55-117-64.55H263.33V210.36l278-59.32a96.81 96.81 0 0 0 11.91-3.38c65-22.87 116.77-24.18 158.34-4 46.43 22.53 82.66 73.47 110.74 155.72 5.71 16.71 11 33 16.19 48.8q3.38 10.35 6.62 20.21c13.61 41.25 47.49 160.3 57.55 195.8 3.22 11.37 3.6 21.91 1.1 30.47z" p-id="1060"></path></svg>