<?xml version="1.0" standalone="no"?><!DOCTYPE svg PUBLIC "-//W3C//DTD SVG 1.1//EN" "http://www.w3.org/Graphics/SVG/1.1/DTD/svg11.dtd"><svg t="1598749901886" class="icon" viewBox="0 0 1024 1024" version="1.1" xmlns="http://www.w3.org/2000/svg" p-id="13112" xmlns:xlink="http://www.w3.org/1999/xlink" width="200" height="200"><defs><style type="text/css"></style></defs><path d="M936.594286 603.428571q0 2.852571-0.585143 4.022857-36.571429 153.161143-153.161143 248.32t-273.115429 95.158857q-83.456 0-161.426286-31.451429t-139.117714-89.746286l-73.728 73.728q-10.825143 10.825143-25.746286 10.825143t-25.746286-10.825143-10.825143-25.746286l0-256q0-14.848 10.825143-25.746286t25.746286-10.825143l256 0q14.848 0 25.746286 10.825143t10.825143 25.746286-10.825143 25.746286l-78.262857 78.262857q40.594286 37.741714 92.013714 58.294857t106.861714 20.553143q76.580571 0 142.848-37.156571t106.276571-102.253714q6.290286-9.728 30.281143-66.852571 4.534857-13.165714 17.115429-13.165714l109.714286 0q7.460571 0 12.873143 5.412571t5.412571 12.873143zM950.857143 146.285714l0 256q0 14.848-10.825143 25.746286t-25.746286 10.825143l-256 0q-14.848 0-25.746286-10.825143t-10.825143-25.746286 10.825143-25.746286l78.848-78.848q-84.553143-78.262857-199.460571-78.262857-76.580571 0-142.848 37.156571t-106.276571 102.253714q-6.290286 9.728-30.281143 66.852571-4.534857 13.165714-17.115429 13.165714l-113.737143 0q-7.460571 0-12.873143-5.412571t-5.412571-12.873143l0-4.022857q37.156571-153.161143 154.258286-248.32t274.285714-95.158857q83.456 0 162.304 31.744t139.995429 89.453714l74.313143-73.728q10.825143-10.825143 25.746286-10.825143t25.746286 10.825143 10.825143 25.746286z" p-id="13113"></path></svg>