<?xml version="1.0" standalone="no"?><!DOCTYPE svg PUBLIC "-//W3C//DTD SVG 1.1//EN" "http://www.w3.org/Graphics/SVG/1.1/DTD/svg11.dtd"><svg t="1608126376198" class="icon" viewBox="0 0 1024 1024" version="1.1" xmlns="http://www.w3.org/2000/svg" p-id="1154" xmlns:xlink="http://www.w3.org/1999/xlink" width="200" height="200"><defs><style type="text/css"></style></defs><path d="M792.087177 533.947251a306.758259 306.758259 0 0 1-342.433025 0.335499 402.990662 402.990662 0 0 0-224.61683 362.730738c0 169.035767 792.281767 166.687271 792.281767 0a402.599246 402.599246 0 0 0-225.231912-363.066237z m-437.82668-262.807842a266.330585 266.330585 0 1 1 266.330585 270.412494 268.399498 268.399498 0 0 1-266.330585-270.412494z m-176.13717 640.132802a58.71239 58.71239 0 0 0 2.795828 17.8933C80.884425 912.893791 6.179898 880.853601 6.179898 832.597608a348.639764 348.639764 0 0 1 194.36597-313.915579 264.709005 264.709005 0 0 0 139.399989 44.73325 451.693988 451.693988 0 0 0-161.82253 347.633266zM309.97458 271.139409a317.382406 317.382406 0 0 1 58.320974-184.021405 221.317752 221.317752 0 0 0-19.235297-0.838749 222.715666 222.715666 0 0 0 0 445.375417 214.216349 214.216349 0 0 0 77.332605-14.370557 316.767324 316.767324 0 0 1-116.362366-246.032873z m0 0" p-id="1155"></path></svg>