<?xml version="1.0" standalone="no"?><!DOCTYPE svg PUBLIC "-//W3C//DTD SVG 1.1//EN" "http://www.w3.org/Graphics/SVG/1.1/DTD/svg11.dtd"><svg t="1607257594937" class="icon" viewBox="0 0 1024 1024" version="1.1" xmlns="http://www.w3.org/2000/svg" p-id="847" xmlns:xlink="http://www.w3.org/1999/xlink" width="200" height="200"><defs><style type="text/css"></style></defs><path d="M618.1376 400.6912a33.28 33.28 0 0 1 5.1712 46.7456l-67.4304 84.3264a58.88 58.88 0 0 1-87.6544 4.864l-43.776-43.776a33.28 33.28 0 0 1 47.104-47.0528l37.6832 37.7344 62.1056-77.6704a33.28 33.28 0 0 1 46.7968-5.1712z" p-id="848"></path><path d="M462.9504 127.488a58.88 58.88 0 0 1 98.0992 0l109.9264 165.6832 191.488 53.3504a58.88 58.88 0 0 1 30.3616 93.3376l-123.5968 155.6992 8.448 198.656a58.88 58.88 0 0 1-79.36 57.7024l-186.368-69.4272-186.2656 69.4272a58.88 58.88 0 0 1-79.36-57.7024l8.448-198.656-123.5968-155.6992a58.88 58.88 0 0 1 30.3104-93.3376l191.488-53.3504 109.9776-165.632z m49.0496 46.4896L406.8864 332.3904a58.88 58.88 0 0 1-33.28 24.1664l-183.0912 50.9952 118.1696 148.8896c8.8064 11.1104 13.312 24.9856 12.6976 39.1168l-8.0896 189.952 178.176-66.4064a58.88 58.88 0 0 1 41.0624 0l178.176 66.3552-8.0896-189.952a58.88 58.88 0 0 1 12.6976-39.0656l118.1696-148.8896-183.1424-50.9952a58.88 58.88 0 0 1-33.28-24.1664L512 173.9776z" p-id="849"></path></svg>