<?xml version="1.0" standalone="no"?><!DOCTYPE svg PUBLIC "-//W3C//DTD SVG 1.1//EN" "http://www.w3.org/Graphics/SVG/1.1/DTD/svg11.dtd"><svg t="1598888403859" class="icon" viewBox="0 0 1097 1024" version="1.1" xmlns="http://www.w3.org/2000/svg" p-id="1294" xmlns:xlink="http://www.w3.org/1999/xlink" width="214.2578125" height="200"><defs><style type="text/css"></style></defs><path d="M533.138286 0c28.379429 0 61.659429 19.456 61.659428 74.093714v875.154286C594.651429 1004.397714 561.590857 1024 533.211429 1024c-25.965714 0-54.710857-15.652571-85.504-46.372571L221.403429 750.445714H118.930286A119.222857 119.222857 0 0 1 0 631.222857V392.265143c0-65.828571 53.394286-119.222857 118.930286-119.222857h102.473143L447.707429 45.933714C478.134857 15.506286 506.953143 0 533.211429 0z m-17.773715 91.574857a163.474286 163.474286 0 0 0-11.556571 10.678857L265.874286 340.845714a39.497143 39.497143 0 0 1-28.086857 11.702857H118.930286a39.789714 39.789714 0 0 0-39.643429 39.716572v238.738286c0 21.942857 17.846857 39.716571 39.643429 39.716571H237.714286a39.497143 39.497143 0 0 1 28.086857 11.702857l238.006857 238.811429c4.242286 4.169143 8.045714 7.68 11.483429 10.678857V91.574857z m382.390858 27.062857c85.504 97.865143 172.763429 220.964571 172.763428 392.996572 0 172.032-87.405714 295.204571-172.763428 392.923428a39.350857 39.350857 0 0 1-55.954286 3.876572 39.936 39.936 0 0 1-3.657143-56.100572c79.579429-91.062857 153.161143-195.218286 153.161143-340.553143 0-145.261714-73.654857-249.563429-153.161143-340.48a39.862857 39.862857 0 0 1 3.657143-56.246857 39.497143 39.497143 0 0 1 55.954286 3.657143z m-132.388572 138.313143c6.436571 9.142857 13.165714 18.066286 19.748572 26.770286 42.788571 56.978286 87.259429 115.712 87.259428 228.205714 0 108.909714-48.859429 175.323429-91.867428 234.057143l-15.213715 20.845714a40.009143 40.009143 0 0 1-55.442285 8.996572 40.009143 40.009143 0 0 1-9.069715-55.515429l15.652572-21.504c41.106286-55.881143 76.507429-104.009143 76.507428-186.953143 0-85.723429-31.378286-127.414857-71.094857-180.150857a1084.708571 1084.708571 0 0 1-20.992-28.379428 39.789714 39.789714 0 0 1 9.142857-55.515429 39.497143 39.497143 0 0 1 55.296 9.142857z" p-id="1295"></path></svg>