<?xml version="1.0" standalone="no"?><!DOCTYPE svg PUBLIC "-//W3C//DTD SVG 1.1//EN" "http://www.w3.org/Graphics/SVG/1.1/DTD/svg11.dtd"><svg t="1601715683799" class="icon" viewBox="0 0 1070 1024" version="1.1" xmlns="http://www.w3.org/2000/svg" p-id="1927" xmlns:xlink="http://www.w3.org/1999/xlink" width="208.984375" height="200"><defs><style type="text/css"></style></defs><path d="M227.937748 356.583667c12.724416 36.616319 33.207623 68.582536 61.759972 96.514182 24.207426-26.690239 42.513-58.961635 54.621886-96.514182h-116.381858z" p-id="1928"></path><path d="M985.940546 139.006491h-453.775449L505.676586 0H84.239775C37.702549 0 0 37.702549 0 84.239775v716.513959c0 46.537226 37.702549 84.239775 84.239775 84.239775h384.44807l-30.543772 139.006491h547.796473c46.537226 0 84.239775-37.702549 84.239775-84.239775V223.246266c0-46.532053-37.707722-84.239775-84.239775-84.239775zM413.522844 564.814087c-49.656259-18.621097-90.933025-41.581945-123.825124-68.892887-34.759382 30.72481-77.587905 53.375306-128.170046 67.656653l-17.379691-28.557522c49.345908-12.724416 90.307149-32.58692 122.583717-59.89269-33.517975-34.138678-56.789174-73.553334-69.829114-118.549146h-47.173447v-32.276569h122.89407c-7.758791-14.276175-17.379691-27.621294-28.552349-40.345711l32.58692-11.788189c11.172658 14.581354 21.414262 31.966217 30.719638 52.1339h117.30774v32.276569h-46.863095c-14.896878 46.547571-36.621491 85.341523-65.17384 116.687036 31.966217 25.448833 71.686052 46.552743 118.859498 63.927262l-17.984877 27.621294z m614.656558 374.946138a42.114715 42.114715 0 0 1-42.119888 42.119888H490.645222l21.238396-96.648668h158.098288l-90.446807-503.411019-0.594841 2.627644-3.817325-20.16251 1.313822 0.475872-32.933479-183.635054h442.556238a42.114715 42.114715 0 0 1 42.119888 42.119888v716.513959z" p-id="1929"></path><path d="M685.458107 541.925655h116.066334v-31.035162h-116.066334V449.440872h123.514773v-31.035162h-159.825913v221.585885h165.10189v-31.035162h-128.79075zM928.153074 475.194884c-9.6209 0-18.310746 1.86211-26.379887 5.901853-7.758791 3.724219-14.896878 9.615728-21.10391 17.06934v-18.621098h-35.380085v160.446616h35.380085V543.477413c1.241406-12.724416 5.586329-22.655668 13.034768-29.483404 6.517384-6.207032 14.276175-9.310549 22.96602-9.310548 24.207426 0 36.31114 13.034768 36.311139 39.414655v95.893479h35.380085v-99.002167c-0.005173-44.06993-20.178028-65.794544-60.208215-65.794544z" p-id="1930"></path></svg>